<svg id="Layer_1" data-name="Layer 1" xmlns="http://www.w3.org/2000/svg" viewBox="0 0 468.18 125.86"><defs><style>.cls-1{fill:#fff;}</style></defs><path class="cls-1" d="M77.28,358.8h45.86l-1.5,5.09H94.47L90,379.34h23.78l-1.43,5.09H88.61L83.84,401h27.24l-1.5,5.13H63.72Zm43.59,25.4c-4.43,15.26,3.58,22.58,21.7,22.58s24.81-4.54,29.28-20l7.94-28H174.2l-8,28.29c-2.93,9.87-6.9,13.1-17.31,13.1-10.13,0-12.17-4.81-9.28-14.68l7.51-26.67h-19l-7.24,25.36m86.78,21.93h19.93l-6.4-19c6.9-1.66,12.1-5.05,13.95-11.49,3.35-11.75-6.43-16.87-19.85-16.87H187.62l-13.53,47.36h18.07l5-17.65h5Zm-9-22.82,5.55-19.42h8.17c4.93,0,6.86,2,4.66,9.83-2.16,7.51-5.24,9.63-10.21,9.63l-8.17,0ZM238,379.88c-4.24,14.76,3.74,27,23.89,27s31.84-7.13,36-21.89-3.74-27-23.9-27-31.79,7.12-36,21.88m40.81,2.51c-4.55,16.18-7.82,19.38-15.8,19.38s-10.56-3.2-6-19.38,7.82-19.31,15.8-19.31,10.56,3.2,6,19.31m19,23.74h18.65L321,390.29h14.26c13.33,0,21.58-4.12,24.43-14.3,3.28-11.41-5.12-17.19-16.76-17.19H311.32Zm24.55-20.93,6.09-21.35h8.09c5,0,6.78,2.12,4.39,10.6s-5.47,10.79-10.48,10.79l-8.09,0Zm33.87,20.93h45.86l1.5-5.13H376.37l4.78-16.61h23.77l1.43-5.08H382.57l4.4-15.46h27.2l1.51-5.08H369.82Zm49.25,0H412l8.29-11.56H444l2,11.56h18.65l-8.52-47.36H440.15Zm34-38.15,3.62,21.54H423.92Zm66.59,38.15h12.18l13.49-47.36H526.2l-8.29,29.13-22.35-29.13H481.61l-13.52,47.36h5.66l8.9-31.29ZM63.57,483.86H99.48c26.13,0,37.23-2.89,41-16.46,2.12-7.67-1-15.38-11-17.19,10-1.35,16.07-5.78,17.92-12.56,3.82-14-4.2-20.5-29.59-20.5H82Zm26.51-7.21,6.47-23.51h11.91c7,0,9.1,2.7,6.55,11.95-2.58,9.59-5.86,11.56-12.91,11.56Zm8.32-30.48,6-21.89h11.45c7.13,0,9.33,2.08,6.9,11.1-2.58,9.48-5.94,10.75-13.07,10.75l-11.29,0Zm45.82,37.69h25.13l18.34-66.71H162.57Zm81.51,0h27.09l-8.67-26.75c9.4-2.35,16.45-7.13,19-16.18,4.55-16.54-8.75-23.78-27-23.78H198.48l-18.42,66.71h24.55L211.43,459h6.82Zm-12.22-32.18,7.56-27.4h11.09c6.75,0,9.33,2.89,6.32,13.83-2.92,10.56-7.13,13.57-13.87,13.57Zm47.21,32.18H298.6c26.21,0,41-8.94,46.78-29.75s-2.27-37-28.47-37H279.14Zm27.09-7.21,14.34-52.33h9.09c9.17,0,14.53,2.62,8,26.12S306,476.65,296.87,476.65Zm57.73,7.21h25.12L389,417.15H363.84Zm35.88,0h62.35l2-7.25H408.74l6.47-23.39h32.37l2-7.13H417.18l6-21.77h37l2-7.13H399.84Zm100.23,0c31,0,40.77-5.24,43.7-22.7,1-5.51.16-9.48-2.5-12.68-3.66-4-10.37-6.4-19.39-8.17-9.55-1.31-14-2.31-15.72-3.89-1.23-1-1.62-2.39-1-4.86,1.19-6,5.59-7.36,20-7.36h22.2l2.19-7.05c-19.11-.31-19.11-.31-26.4-.31-23.27,0-39.3,2.12-42.81,22-1,5.12-.23,9.21,1.93,12.33,3.5,4.51,10,7.09,19.23,8.78,10.13,1.51,14.6,2.32,16.37,4.09,1.2,1.16,1.62,2.66,1.05,5-1.12,5.94-4.94,7.52-20.93,7.52-8.44,0-8.44,0-24.05.07l-1.77,7.25,27.9,0Z" transform="translate(-63.57 -358)"/></svg>