<svg width="469" height="126" viewBox="0 0 469 126" fill="none" xmlns="http://www.w3.org/2000/svg">
<path d="M13.71 0.809998H59.57L58.07 5.90002H30.9L26.43 21.35H50.21L48.78 26.44H25.04L20.27 43.01H47.51L46.01 48.14H0.150002L13.71 0.809998ZM57.3 26.21C52.87 41.47 60.88 48.79 79 48.79C97.12 48.79 103.81 44.25 108.28 28.79L116.22 0.790009H110.63L102.63 29.08C99.7 38.95 95.73 42.18 85.32 42.18C75.19 42.18 73.15 37.37 76.04 27.5L83.55 0.830017H64.55L57.31 26.19L57.3 26.21ZM144.09 48.12H164.02L157.62 29.12C164.52 27.46 169.72 24.07 171.57 17.63C174.92 5.88 165.14 0.76001 151.72 0.76001H124.05L110.52 48.12H128.59L133.59 30.47H138.59L144.09 48.12ZM135.09 25.3L140.64 5.88H148.81C153.74 5.88 155.67 7.88002 153.47 15.71C151.31 23.22 148.23 25.34 143.26 25.34H135.09V25.3ZM174.43 21.89C170.19 36.65 178.17 48.89 198.32 48.89C218.47 48.89 230.16 41.76 234.32 27C238.48 12.24 230.58 0 210.42 0C190.26 0 178.63 7.12 174.42 21.88L174.43 21.89ZM215.23 24.39C210.68 40.57 207.41 43.77 199.43 43.77C191.45 43.77 188.87 40.57 193.43 24.39C197.99 8.21001 201.25 5.08002 209.23 5.08002C217.21 5.08002 219.79 8.28001 215.23 24.39ZM234.23 48.13H252.88L257.43 32.3H271.69C285.02 32.3 293.27 28.18 296.12 18C299.4 6.59 291 0.809998 279.36 0.809998H247.75L234.23 48.13ZM258.78 27.2L264.87 5.85001H272.96C277.96 5.85001 279.74 7.97001 277.35 16.45C274.96 24.93 271.88 27.24 266.87 27.24H258.78V27.2ZM292.65 48.13H338.51L340.01 43H312.8L317.58 26.39H341.35L342.78 21.31H319L323.4 5.85001H350.6L352.11 0.77002H306.25L292.65 48.13ZM341.9 48.13H348.43L356.72 36.57H380.43L382.43 48.13H401.08L392.56 0.77002H376.58L341.9 48.13ZM375.9 9.98001L379.52 31.52H360.35L375.9 9.98001ZM442.49 48.13H454.67L468.16 0.77002H462.63L454.34 29.9L431.99 0.77002H418.04L404.52 48.13H410.18L419.08 16.84L442.49 48.13ZM0 125.87H35.91C62.04 125.87 73.14 122.98 76.91 109.41C79.03 101.74 75.91 94.03 65.91 92.22C75.91 90.87 81.98 86.44 83.83 79.66C87.65 65.66 79.63 59.16 54.24 59.16H18.43L0 125.87ZM26.51 118.66L32.98 95.15H44.89C51.89 95.15 53.99 97.85 51.44 107.1C48.86 116.69 45.58 118.66 38.53 118.66H26.51ZM34.83 88.18L40.83 66.29H52.28C59.41 66.29 61.61 68.37 59.18 77.39C56.6 86.87 53.24 88.14 46.11 88.14H34.82L34.83 88.18ZM80.65 125.87H105.78L124.12 59.16H99L80.65 125.87ZM162.16 125.87H189.25L180.58 99.12C189.98 96.77 197.03 91.99 199.58 82.94C204.13 66.4 190.83 59.16 172.58 59.16H134.91L116.49 125.87H141.04L147.86 101.01H154.68L162.16 125.87ZM149.94 93.69L157.5 66.29H168.59C175.34 66.29 177.92 69.18 174.91 80.12C171.99 90.68 167.78 93.69 161.04 93.69H149.94ZM197.15 125.87H235.03C261.24 125.87 276.03 116.93 281.81 96.12C287.59 75.31 279.54 59.12 253.34 59.12H215.57L197.15 125.87ZM224.24 118.66L238.58 66.33H247.67C256.84 66.33 262.2 68.95 255.67 92.45C249.14 115.95 242.43 118.66 233.3 118.66H224.24ZM281.97 125.87H307.09L325.43 59.16H300.27L281.97 125.87ZM317.85 125.87H380.2L382.2 118.62H345.17L351.64 95.23H384.01L386.01 88.1H353.61L359.61 66.33H396.61L398.61 59.2H336.27L317.85 125.87ZM418.08 125.87C449.08 125.87 458.85 120.63 461.78 103.17C462.78 97.66 461.94 93.69 459.28 90.49C455.62 86.49 448.91 84.09 439.89 82.32C430.34 81.01 425.89 80.01 424.17 78.43C422.94 77.43 422.55 76.04 423.17 73.57C424.36 67.57 428.76 66.21 443.17 66.21H465.37L467.56 59.16C448.45 58.85 448.45 58.85 441.16 58.85C417.89 58.85 401.86 60.97 398.35 80.85C397.35 85.97 398.12 90.06 400.28 93.18C403.78 97.69 410.28 100.27 419.51 101.96C429.64 103.47 434.11 104.28 435.88 106.05C437.08 107.21 437.5 108.71 436.93 111.05C435.81 116.99 431.99 118.57 416 118.57C407.56 118.57 407.56 118.57 391.95 118.64L390.18 125.89H418.08V125.87Z" fill="black"/>
</svg>
