<?xml version="1.0" encoding="utf-8"?>
<!-- Generator: Adobe Illustrator 24.3.0, SVG Export Plug-In . SVG Version: 6.00 Build 0)  -->
<svg version="1.0" id="Lager_1" xmlns="http://www.w3.org/2000/svg" xmlns:xlink="http://www.w3.org/1999/xlink" x="0px" y="0px"
	 viewBox="0 0 1417.3 1417.3" enable-background="new 0 0 1417.3 1417.3" xml:space="preserve">
<rect width="1417.3" height="1417.3"/>
<g>
	<path fill="#FFFFFF" d="M329.3,738.7c-0.8,0.7-15,12.6-12.7,31.1c2.1,16.8,16.1,24.8,17.5,25.7c-0.5-2.6-0.9-7.2,1.5-11.2
		c2.7-4.5,7.5-6.2,10-6.9c17.5-4.9,55.7-15,55.7-15c2-0.4,15.7-2.8,26.9,6.4c10,8.2,13.9,22.2,10,35.5c-5.3,17.9-4.6,22-3.3,37.5
		c1.1,13,5.4,22.5,8,27.9c13.2,28.3,37.7,42,47.1,46.5c26,12.7,49.7,10.6,57.9,9.8c19.6-2,33.7-8.8,38.8-11.2
		c34-16.4,127.6-59.1,254.4-117.6c11.5-23.8,22.9-47.5,34.4-71.3l46.3-11.6l43.4-84.7l53.2-15.9l44.1-117.2L635.1,643.9l488.3-192.4
		l-84.2,184l-45.6,8.7l-44.1,85l-45.6,11.2l-35.5,63.7c-24.6,10.7-49.2,21.5-73.9,32.5c-85.6,38.2-168.8,77.1-249.9,116.5
		c-8.9,4.3-26.3,11.2-48.8,10.5c-8.1-0.3-44.5-2.4-72.2-32.7c-21.2-23.2-24.7-49.6-25.9-59.4c-4.5-38.1,11.9-66.8,17.6-75.8
		c6.8-9.4,6.3-14.1,5.1-16.5c-5.8-12-45.1-1.4-47.1-0.9c-11.8,3.2-23.4,6.6-26.8,16.4c-2,5.8-0.4,11.5,1,15
		c-18.8,3-37.1-4.3-46.5-18.8c-6.6-10-10.7-26.4-3.2-40.4c4-7.5,10.1-11.7,13.7-13.8c-4.5-15.9-4.2-29.1-2.9-38.5
		c8-59.6,72.8-88.4,79.2-91.2c38-11.9,63.8-6.8,80.4,0.6c0.6,0.3,1.2,0.5,1.7,0.8c-10.5-1.2-27.6-1.7-47,4.3
		c-40.2,12.6-60.9,44.5-69.5,57.9C337.2,696.4,331.4,721.5,329.3,738.7z"/>
	<polygon fill="#FFFFFF" points="409.3,668.1 359.4,728.2 391.6,717.3 	"/>
	<path fill="#FFFFFF" d="M581.4,965.8"/>
</g>
<g display="none">
	<path display="inline" d="M329.3,738.7c-0.8,0.7-15,12.6-12.7,31.1c2.1,16.8,16.1,24.8,17.5,25.7c-0.5-2.6-0.9-7.2,1.5-11.2
		c2.7-4.5,7.5-6.2,10-6.9c17.5-4.9,55.7-15,55.7-15c2-0.4,15.7-2.8,26.9,6.4c10,8.2,13.9,22.2,10,35.5c-5.3,17.9-4.6,22-3.3,37.5
		c1.1,13,5.4,22.5,8,27.9c13.2,28.3,37.7,42,47.1,46.5c26,12.7,49.7,10.6,57.9,9.8c19.6-2,33.7-8.8,38.8-11.2
		c34-16.4,127.6-59.1,254.4-117.6c11.5-23.8,22.9-47.5,34.4-71.3l46.3-11.6l43.4-84.7l53.2-15.9l44.1-117.2L635.1,643.9l488.3-192.4
		l-84.2,184l-45.6,8.7l-44.1,85l-45.6,11.2l-35.5,63.7c-24.6,10.7-49.2,21.5-73.9,32.5c-85.6,38.2-168.8,77.1-249.9,116.5
		c-8.9,4.3-26.3,11.2-48.8,10.5c-8.1-0.3-44.5-2.4-72.2-32.7c-21.2-23.2-24.7-49.6-25.9-59.4c-4.5-38.1,11.9-66.8,17.6-75.8
		c6.8-9.4,6.3-14.1,5.1-16.5c-5.8-12-45.1-1.4-47.1-0.9c-11.8,3.2-23.4,6.6-26.8,16.4c-2,5.8-0.4,11.5,1,15
		c-18.8,3-37.1-4.3-46.5-18.8c-6.6-10-10.7-26.4-3.2-40.4c4-7.5,10.1-11.7,13.7-13.8c-4.5-15.9-4.2-29.1-2.9-38.5
		c8-59.6,72.8-88.4,79.2-91.2c38-11.9,63.8-6.8,80.4,0.6c0.6,0.3,1.2,0.5,1.7,0.8c-10.5-1.2-27.6-1.7-47,4.3
		c-40.2,12.6-60.9,44.5-69.5,57.9C337.2,696.4,331.4,721.5,329.3,738.7z"/>
	<polygon display="inline" points="409.3,668.1 359.4,728.2 391.6,717.3 	"/>
	<path display="inline" d="M581.4,965.8"/>
</g>
</svg>
