<?xml version="1.0" encoding="UTF-8" standalone="no"?>
<!-- Created with Inkscape (http://www.inkscape.org/) -->

<svg
   width="210.0mm"
   height="148.0mm"
   viewBox="0 0 210.0 148.0"
   version="1.1"
   id="SVGRoot"
   sodipodi:docname="drawing.svg"
   inkscape:version="1.1 (c4e8f9e, 2021-05-24)"
   xmlns:inkscape="http://www.inkscape.org/namespaces/inkscape"
   xmlns:sodipodi="http://sodipodi.sourceforge.net/DTD/sodipodi-0.dtd"
   xmlns="http://www.w3.org/2000/svg"
   xmlns:svg="http://www.w3.org/2000/svg">
  <sodipodi:namedview
     id="namedview595"
     pagecolor="#505050"
     bordercolor="#eeeeee"
     borderopacity="1"
     inkscape:pageshadow="0"
     inkscape:pageopacity="0"
     inkscape:pagecheckerboard="0"
     inkscape:document-units="mm"
     showgrid="false"
     inkscape:zoom="0.77771465"
     inkscape:cx="396.67505"
     inkscape:cy="576.68967"
     inkscape:window-width="1312"
     inkscape:window-height="1081"
     inkscape:window-x="0"
     inkscape:window-y="25"
     inkscape:window-maximized="0"
     inkscape:current-layer="layer1" />
  <defs
     id="defs590" />
  <g
     inkscape:label="Layer 1"
     inkscape:groupmode="layer"
     id="layer1">
    <g
       id="g60"
       transform="matrix(0.25228115,0,0,0.28640838,-74.169446,-88.2555)">
      <path
         fill="#ffffff"
         d="m 331.4,596.5 c -0.8,0.7 -15,12.6 -12.7,31.1 2.1,16.8 16.1,24.8 17.5,25.7 -0.5,-2.6 -0.9,-7.2 1.5,-11.2 2.7,-4.5 7.5,-6.2 10,-6.9 17.5,-4.9 55.7,-15 55.7,-15 2,-0.4 15.7,-2.8 26.9,6.4 10,8.2 13.9,22.2 10,35.5 -5.3,17.9 -4.6,22 -3.3,37.5 1.1,13 5.4,22.5 8,27.9 13.2,28.3 37.7,42 47.1,46.5 26,12.7 49.7,10.6 57.9,9.8 19.6,-2 33.7,-8.8 38.8,-11.2 34,-16.4 127.6,-59.1 254.4,-117.6 11.5,-23.8 22.9,-47.5 34.4,-71.3 l 46.3,-11.6 43.4,-84.7 53.2,-15.9 44.1,-117.2 -427.4,147.4 488.3,-192.4 -84.2,184 -45.6,8.7 -44.1,85 -45.6,11.3 -35.5,63.7 c -24.6,10.7 -49.2,21.5 -73.9,32.5 -85.6,38.2 -168.8,77.1 -249.9,116.5 -8.9,4.3 -26.3,11.2 -48.8,10.5 -8.1,-0.3 -44.5,-2.4 -72.2,-32.7 -21.2,-23.2 -24.7,-49.6 -25.9,-59.4 -4.5,-38.1 11.9,-66.8 17.6,-75.8 6.8,-9.4 6.3,-14.1 5.1,-16.5 -5.8,-12 -45.1,-1.4 -47.1,-0.9 -11.8,3.2 -23.4,6.6 -26.8,16.4 -2,5.8 -0.4,11.5 1,15 -18.8,3 -37.1,-4.3 -46.5,-18.8 -6.6,-10 -10.7,-26.4 -3.2,-40.4 4,-7.5 10.1,-11.7 13.7,-13.8 -4.5,-15.9 -4.2,-29.1 -2.9,-38.5 8,-59.6 72.8,-88.4 79.2,-91.2 38,-11.9 63.8,-6.8 80.4,0.6 0.6,0.3 1.2,0.5 1.7,0.8 -10.5,-1.2 -27.6,-1.7 -47,4.3 -40.2,12.6 -60.9,44.5 -69.5,57.9 -16.2,25.7 -22,50.9 -24.1,68 z"
         id="path54" />
      <polygon
         fill="#ffffff"
         points="361.5,586 393.7,575.1 411.4,525.9 "
         id="polygon56" />
      <path
         fill="#ffffff"
         d="M 583.5,823.7"
         id="path58" />
    </g>
  </g>
</svg>
