<?xml version="1.0" encoding="UTF-8" standalone="no"?>
<!-- Created with Inkscape (http://www.inkscape.org/) -->

<svg
   width="87.153748mm"
   height="56.197498mm"
   viewBox="0 0 87.153748 56.197498"
   version="1.1"
   id="svg492"
   inkscape:version="1.1 (c4e8f9e, 2021-05-24)"
   sodipodi:docname="berget-white-no-padding.svg"
   xmlns:inkscape="http://www.inkscape.org/namespaces/inkscape"
   xmlns:sodipodi="http://sodipodi.sourceforge.net/DTD/sodipodi-0.dtd"
   xmlns:xlink="http://www.w3.org/1999/xlink"
   xmlns="http://www.w3.org/2000/svg"
   xmlns:svg="http://www.w3.org/2000/svg">
  <sodipodi:namedview
     id="namedview494"
     pagecolor="#505050"
     bordercolor="#eeeeee"
     borderopacity="1"
     inkscape:pageshadow="0"
     inkscape:pageopacity="0"
     inkscape:pagecheckerboard="0"
     inkscape:document-units="mm"
     showgrid="false"
     inkscape:zoom="0.77771465"
     inkscape:cx="122.79568"
     inkscape:cy="250.09173"
     inkscape:window-width="1312"
     inkscape:window-height="1081"
     inkscape:window-x="0"
     inkscape:window-y="25"
     inkscape:window-maximized="0"
     inkscape:current-layer="layer1" />
  <defs
     id="defs489" />
  <g
     inkscape:label="Layer 1"
     inkscape:groupmode="layer"
     id="layer1"
     transform="translate(-72.433435,-86.550735)">
    <g
       id="g579"
       transform="matrix(0.26458333,0,0,0.26458333,-62.39823,-46.958013)">
      <g
         id="Lager_4"
         class="st0">
	<rect
   class="st1"
   width="1417.3"
   height="1133.9"
   id="rect498"
   x="0"
   y="0" />

</g>
      <g
         id="Lager_1"
         class="st0">
	
		<image
   style="display:inline;overflow:visible"
   width="1049"
   height="723"
   xlink:href="../../../../F01BE7B8.jpg"
   transform="translate(184.5,205.5)"
   id="image501">
	</image>

</g>
      <g
         id="Lager_2"
         class="st0">
	<path
   class="st1"
   d="m 797,321 c -24,24.7 -48,49.3 -72,74 -54.7,-42.3 -109.3,-84.7 -164,-127 -69,75.7 -138,151.3 -207,227 0,55.3 0,110.7 0,166 107,38.3 214,76.7 321,115 104.3,-38.3 208.7,-76.7 313,-115 0,-55.3 0,-110.7 0,-166 C 924.3,432.7 860.7,383.3 797,321 Z M 675,688 c -90,-19.6 -180,-39.2 -270,-58.7 0,-31.1 0,-62.2 0,-93.3 84,24.7 168,49.3 252,74 -84.3,-38.3 -168.7,-76.7 -253,-115 53,-65 106,-130 159,-195 37.3,47 74.7,94 112,141 -31.3,31.7 -62.7,63.3 -94,95 12.7,0 12.3,0 25,0 63.7,-62.7 127.3,-125.3 191,-188 36.7,49 73.3,98 110,147 -64.3,38.3 -128.7,76.7 -193,115 74.7,-24.7 149.3,-49.3 224,-74 0.3,31 0.7,62 1,93 -88,19.7 -176,39.3 -264,59 z M 87,159"
   id="path504" />

	<path
   class="st2"
   d="M 1149,977"
   id="path506" />

</g>
      <g
         id="Lager_3"
         class="st0">
	<g
   class="st1"
   id="g515">
		<path
   class="st3"
   d="m 1156.8,687.8 -85.6,93.5 c -3.6,3.9 0.7,8.9 7.7,8.9 H 1250 c 7,0 11.3,-5 7.7,-8.9 l -85.6,-93.5 c -3.4,-3.9 -11.8,-3.9 -15.3,0 z"
   id="path509" />

		<path
   class="st3"
   d="m 921.4,582.9 c -60.6,66.2 -121.1,132.4 -181.7,198.7 -3.5,3.9 0.6,8.8 7.5,8.9 78.1,1.1 156.1,2.3 234.2,3.4 3.3,0 6.3,-1.1 8,-2.9 l 64.8,-73.9 c 1.6,-1.9 1.6,-4.1 -0.1,-6 -39.1,-42.7 -78.2,-85.5 -117.3,-128.2 -3.5,-3.8 -11.9,-3.8 -15.4,0 z"
   id="path511" />

		<path
   class="st3"
   d="M 618.8,441.9 C 515.3,555 411.8,668.2 308.3,781.3 c -3.6,3.9 0.7,8.9 7.7,8.9 h 339.6 c 3.2,0 6.2,-1.1 7.8,-3 45.8,-52.5 91.6,-104.9 137.4,-157.4 1.6,-1.9 1.6,-4.1 -0.1,-6 -55.5,-60.7 -111,-121.4 -166.5,-182 -3.5,-3.8 -11.9,-3.8 -15.4,0.1 z"
   id="path513" />

	</g>

</g>
      <g
         id="Lager_5"
         class="st0">
	<g
   class="st1"
   id="g526">
		<path
   class="st3"
   d="m 722.8,791.4 c 8.6,-11.5 17.2,-23.1 25.8,-34.6 1.6,2.9 3.3,5.9 4.9,8.8 14.6,-16.3 29.1,-32.6 43.7,-48.9 9,0 18.1,0 27.1,0 -6.1,-12.8 -12.2,-25.7 -18.3,-38.5 5.3,-2.2 10.7,-4.4 16,-6.5 -9.1,-13.2 -18.3,-26.3 -27.4,-39.5 4.2,-1.8 8.5,-3.7 12.7,-5.5 1.4,-24.7 2.8,-49.4 4.2,-74.1 -21.9,5.3 -43.7,10.7 -65.6,16 -2.2,6.2 -4.4,12.4 -6.5,18.6 -14.5,-1.8 -28.9,-3.7 -43.4,-5.5 -13.3,2 -26.5,3.9 -39.8,5.9 -2.3,-6.6 -4.6,-13.3 -6.9,-19.9 -21.8,-5.3 -43.5,-10.7 -65.3,-16 1.5,25.2 3,50.5 4.6,75.7 4.5,2.1 8.9,4.1 13.4,6.2 -9.6,12.6 -19.1,25.2 -28.7,37.8 5.5,2.6 11.1,5.2 16.6,7.8 -6.1,13.1 -12.2,26.1 -18.3,39.2 8.6,-0.7 17.2,-1.3 25.8,-2 15.1,16.5 30.2,33.1 45.4,49.6 1.7,-3.8 3.5,-7.6 5.2,-11.4 8.5,12.4 17,24.8 25.5,37.2 -2.6,-11.5 -5.2,-23.1 -7.8,-34.6 -6.4,-11 -12.8,-22 -19.3,-33 -2.3,4.7 -4.6,9.4 -6.9,14 -11.9,-12.6 -23.7,-25.2 -35.6,-37.8 -2.7,0.2 -5.4,0.4 -8.2,0.7 4.7,-10.1 9.4,-20.2 14,-30.3 -4.5,-2.3 -8.9,-4.6 -13.4,-6.9 9.7,-13.1 19.4,-26.1 29,-39.2 -7.6,-2.9 -15.2,-5.9 -22.8,-8.8 -1.4,-15.4 -2.8,-30.9 -4.2,-46.3 13.5,3.7 27,7.4 40.5,11.1 2.5,8.2 5,16.3 7.5,24.5 10.2,-1.3 20.4,-2.6 30.7,-3.9 1.7,2.4 3.5,4.8 5.2,7.2 -5.8,3.9 -11.5,7.8 -17.3,11.7 7.5,5.8 15,11.5 22.5,17.3 3.5,16 7,32 10.4,48 3.4,-16.1 6.7,-32.2 10.1,-48.3 7.2,-5.7 14.4,-11.3 21.5,-17 -5.3,-4 -10.7,-8 -16,-12.1 1.8,-2.6 3.7,-5.2 5.5,-7.8 9.9,1.6 19.8,3.3 29.7,4.9 2.7,-8.3 5.4,-16.5 8.1,-24.8 13.3,-3.8 26.5,-7.6 39.8,-11.4 -1,15.9 -2,31.8 -2.9,47.6 -7.5,2.9 -15,5.9 -22.5,8.8 9,13.4 18.1,26.8 27.1,40.1 -3.9,1.6 -7.8,3.3 -11.7,4.9 4.4,10.3 8.7,20.7 13.1,31 -2.7,-0.4 -5.4,-0.9 -8.2,-1.3 -11.3,13.1 -22.6,26.1 -33.9,39.2 -3.2,-5 -6.3,-10 -9.5,-15 -6,11.2 -12,22.4 -17.9,33.6 -2.3,11.1 -4.8,22.3 -7.3,33.5 z"
   id="path518" />

		<path
   class="st3"
   d="m 675.5,753.9 c 7.1,2.2 14.1,4.4 21.2,6.5 7.8,-1.5 15.7,-3 23.5,-4.6 -1.3,8 -2.6,16.1 -3.9,24.1 -6.1,8.4 -12.2,16.7 -18.3,25.1 -6.4,-8.4 -12.8,-16.7 -19.3,-25.1 -1.1,-8.6 -2.2,-17.3 -3.2,-26 z"
   id="path520" />

		<path
   class="st3"
   d="m 718.8,737.9 c 3.6,-9.9 7.2,-19.8 10.8,-29.7 4.6,-0.2 9.1,-0.4 13.7,-0.7 5.3,-6.7 10.7,-13.5 16,-20.2 4.8,-2.2 9.6,-4.4 14.4,-6.5 -10.9,0.5 -21.8,1 -32.7,1.6 -6.6,5.4 -13.2,10.7 -19.9,16.1 -0.7,13.1 -1.5,26.3 -2.3,39.4 z"
   id="path522" />

		<path
   class="st3"
   d="m 676.8,737.9 c -3.6,-9.9 -7.2,-19.8 -10.8,-29.7 -4.6,-0.2 -9.1,-0.4 -13.7,-0.7 -5.3,-6.7 -10.7,-13.5 -16,-20.2 -4.8,-2.2 -9.6,-4.4 -14.4,-6.5 10.9,0.5 21.8,1 32.7,1.6 6.6,5.4 13.2,10.7 19.9,16.1 0.8,13.1 1.5,26.3 2.3,39.4 z"
   id="path524" />

	</g>

</g>
      <g
         id="Lager_7">
	<path
   class="st3"
   d="M 748.5,552.7 723.8,596.5 674,504.6 625.6,596.1 599.5,551.6 509.6,717 H 839 Z m -24.7,123.3 -49.5,-88.7 -49.1,90.5 -24.7,-44.9 -56.9,62.5 55.8,-106 25.1,43.8 c 16.8,-29.8 33.7,-59.6 50.5,-89.4 16.6,30.4 33.2,60.8 49.8,91.2 l 23.3,-44.9 57.2,107.1 -55.8,-65.5 z"
   id="path529" />

</g>
      <g
         id="Lager_6"
         class="st0">
	<g
   class="st1"
   id="g542">
		<path
   class="st3"
   d="m 1166.3,676.7 -94.6,-22.3 14.2,-29.8 -29.5,18.5 -21.4,-99.4 -21.7,98.4 -28.8,-17.2 14.2,30.8 -95.2,20.9 95.2,20.9 c -5.3,10.6 -10.6,21.2 -16,31.8 10.2,-5.9 20.3,-11.7 30.5,-17.6 l 21.7,97.8 21.4,-99.1 30.1,17.5 -13.9,-29.8 z m -131.1,26.9 c -14.9,0 -27,-12.1 -27,-27 0,-14.9 12.1,-27 27,-27 14.9,0 27,12.1 27,27 0,14.9 -12.1,27 -27,27 z"
   id="path532" />

		<path
   class="st3"
   d="m 1008.2,607.1 6.6,-34.3 c 0,0 -67.4,13.9 -81.3,83.2 l 32.4,-6.3 c -0.1,-0.1 11.7,-28.7 42.3,-42.6 z"
   id="path534" />

		<path
   class="st3"
   d="m 1105.2,649.4 34.3,6.6 c 0,0 -13.9,-67.4 -83.2,-81.3 l 6.3,32.4 c 0,0 28.7,11.8 42.6,42.3 z"
   id="path536" />

		<path
   class="st3"
   d="m 1062.5,746.1 -6.6,34.3 c 0,0 67.4,-13.9 81.3,-83.2 l -32.4,6.3 c 0,0.1 -11.8,28.7 -42.3,42.6 z"
   id="path538" />

		<path
   class="st3"
   d="m 965.8,704.8 -34.3,-6.6 c 0,0 13.9,67.4 83.2,81.3 l -6.3,-32.4 c -0.1,0 -28.7,-11.8 -42.6,-42.3 z"
   id="path540" />

	</g>

</g>
    </g>
  </g>
  <style
     type="text/css"
     id="style496">
	.st0{display:none;}
	.st1{display:inline;}
	.st2{display:inline;fill:#594D4D;}
	.st3{fill:#FFFFFF;}
</style>
</svg>
